HIERARCHY
ROOT hip
{
	OFFSET 0.000000 0.000000 0.000000
	CHANNELS 6 Xposition Yposition Zposition Zrotation Yrotation Xrotation 
	JOINT lhipjoint
	{
		OFFSET 0.000000 0.000000 0.000000
		CHANNELS 3 Zrotation Yrotation Xrotation
		JOINT lfemur
		{
			OFFSET 1.363060 -1.794630 0.839290
			CHANNELS 3 Zrotation Yrotation Xrotation
			JOINT ltibia
			{
				OFFSET 2.448110 -6.726130 0.000000
				CHANNELS 3 Zrotation Yrotation Xrotation
				JOINT lfoot
				{
					OFFSET 2.562200 -7.039590 0.000000
					CHANNELS 3 Zrotation Yrotation Xrotation
					JOINT ltoes
					{
						OFFSET 0.157640 -0.433110 2.322550
						CHANNELS 3 Zrotation Yrotation Xrotation
						End Site
						{
							OFFSET 0.000000 0.000000 0.000000
						}
					}
				}
			}
		}
	}
	JOINT rhipjoint
	{
		OFFSET 0.000000 0.000000 0.000000
		CHANNELS 3 Zrotation Yrotation Xrotation
		JOINT rfemur
		{
			OFFSET -1.305520 -1.794630 0.839290
			CHANNELS 3 Zrotation Yrotation Xrotation
			JOINT rtibia
			{
				OFFSET -2.542530 -6.985550 0.000000
				CHANNELS 3 Zrotation Yrotation Xrotation
				JOINT rfoot
				{
					OFFSET -2.568260 -7.056230 0.000000
					CHANNELS 3 Zrotation Yrotation Xrotation
					JOINT rtoes
					{
						OFFSET -0.164730 -0.452590 2.363150
						CHANNELS 3 Zrotation Yrotation Xrotation
						End Site
						{
							OFFSET 0.000000 0.000000 0.000000
						}
					}
				}
			}
		}
	}
	JOINT lowerback
	{
		OFFSET 0.000000 0.000000 0.000000
		CHANNELS 3 Zrotation Yrotation Xrotation
		JOINT upperback
		{
			OFFSET 0.028270 2.035590 -0.193380
			CHANNELS 3 Zrotation Yrotation Xrotation
			JOINT thorax
			{
				OFFSET 0.056720 2.048850 -0.042750
				CHANNELS 3 Zrotation Yrotation Xrotation
				JOINT lowerneck
				{
					OFFSET 0.000000 0.000000 0.000000
					CHANNELS 3 Zrotation Yrotation Xrotation
					JOINT upperneck
					{
						OFFSET -0.054170 1.746240 0.172020
						CHANNELS 3 Zrotation Yrotation Xrotation
						JOINT head
						{
							OFFSET 0.104070 1.761360 -0.123970
							CHANNELS 3 Zrotation Yrotation Xrotation
							End Site
							{
								OFFSET 0.000000 0.000000 0.000000
							}
						}
					}
				}
				JOINT lclavicle
				{
					OFFSET 0.000000 0.000000 0.000000
					CHANNELS 3 Zrotation Yrotation Xrotation
					JOINT lhumerus
					{
						OFFSET 3.362410 1.200890 -0.311210
						CHANNELS 3 Zrotation Yrotation Xrotation
						JOINT lradius
						{
							OFFSET 4.983000 -0.000000 -0.000000
							CHANNELS 3 Zrotation Yrotation Xrotation
							JOINT lwrist
							{
								OFFSET 3.483560 -0.000000 -0.000000
								CHANNELS 3 Zrotation Yrotation Xrotation
								JOINT lhand
								{
									OFFSET 0.000000 0.000000 0.000000
									CHANNELS 3 Zrotation Yrotation Xrotation
									JOINT lfingers
									{
										OFFSET 0.715260 -0.000000 -0.000000
										CHANNELS 3 Zrotation Yrotation Xrotation
										End Site
										{
											OFFSET 0.000000 0.000000 0.000000
										}
									}
								}
								JOINT lthumb
								{
									OFFSET 0.000000 0.000000 0.000000
									CHANNELS 3 Zrotation Yrotation Xrotation
									End Site
									{
										OFFSET 0.000000 0.000000 0.000000
									}
								}
							}
						}
					}
				}
				JOINT rclavicle
				{
					OFFSET 0.000000 0.000000 0.000000
					CHANNELS 3 Zrotation Yrotation Xrotation
					JOINT rhumerus
					{
						OFFSET -3.136600 1.374050 -0.404650
						CHANNELS 3 Zrotation Yrotation Xrotation
						JOINT rradius
						{
							OFFSET -5.241900 -0.000000 -0.000000
							CHANNELS 3 Zrotation Yrotation Xrotation
							JOINT rwrist
							{
								OFFSET -3.444170 -0.000000 -0.000000
								CHANNELS 3 Zrotation Yrotation Xrotation
								JOINT rhand
								{
									OFFSET 0.000000 0.000000 0.000000
									CHANNELS 3 Zrotation Yrotation Xrotation
									JOINT rfingers
									{
										OFFSET -0.622530 -0.000000 -0.000000
										CHANNELS 3 Zrotation Yrotation Xrotation
										End Site
										{
											OFFSET 0.000000 0.000000 0.000000
										}
									}
								}
								JOINT rthumb
								{
									OFFSET 0.000000 0.000000 0.000000
									CHANNELS 3 Zrotation Yrotation Xrotation
									End Site
									{
										OFFSET 0.000000 0.000000 0.000000
									}
								}
							}
						}
					}
				}
			}
		}
	}
}
MOTION
Frames: 8
Frame Time: 0.008333
-31.899157 28.904594 -6.941703 -172.030912 69.013681 -169.572365 -3.422555 1.718308 1.470068 -13.012868 3.969988 -23.714132 7.383606 14.733277 50.109673 0.448672 -1.019179 -1.359054 1.925000 -8.708000 -24.886100 -0.680999 -3.860321 1.283504 26.497864 1.332100 -21.814020 -3.771422 -10.453800 35.161959 -0.756602 2.116943 -5.525923 -0.886100 -6.000300 16.785400 0.077434 -1.339140 7.006299 1.276722 -1.960311 -4.084645 3.055127 -0.222124 2.010138 -4.901305 -6.077860 -4.772588 -0.897998 -6.759789 4.843912 4.011400 -3.037100 1.831700 1.313041 2.057049 0.339353 -78.567093 -3.394621 23.861791 22.431965 -44.165831 -8.171857 -0.931010 0.437244 -178.518176 21.730657 5.374114 2.221300 -7.125000 0.000000 0.000000 -4.982700 36.210900 1.080000 -0.562096 0.935638 3.746136 76.435750 -19.405514 26.736482 -36.943719 49.051306 -11.360923 0.492180 -3.782004 -7.450188 -20.020564 5.994283 -3.670200 7.125000 0.000000 0.000000 4.902000 -19.268700 3.020800 
-31.874661 28.904492 -6.943138 -172.261246 69.351857 -169.744237 -3.431476 1.705072 1.448091 -12.899221 2.756989 -23.543943 7.202334 14.576993 49.534489 0.976484 -4.183255 -0.980992 1.256000 -7.104700 -20.026000 -0.682433 -3.849764 1.277780 26.382430 1.421900 -21.792823 -3.786990 -10.477458 35.244422 -0.779086 2.246718 -5.460879 -0.921500 -6.116000 17.121500 -0.055618 -1.275028 7.322249 1.260752 -1.878478 -4.069625 3.065614 -0.187125 1.964520 -4.851841 -6.100043 -4.955999 -0.868811 -6.781777 4.734573 4.002800 -3.032400 1.837200 1.307117 2.038451 0.335979 -78.408190 -3.025645 23.772329 22.456081 -44.166123 -8.197075 -0.932618 0.440190 -178.354233 21.733172 5.131324 2.129200 -7.125000 0.000000 0.000000 -4.958700 35.951300 1.106300 -0.557632 0.961419 3.748253 76.299329 -19.366080 27.079317 -36.832325 48.955877 -11.287995 0.490919 -3.775656 -7.448088 -19.989179 5.968480 -3.651800 7.125000 0.000000 0.000000 4.924400 -19.306600 3.030500 
-31.849960 28.904902 -6.945085 -172.429102 69.676459 -169.871008 -3.444053 1.697092 1.425253 -12.785638 1.474038 -23.283909 6.997932 14.389298 48.825233 1.401996 -7.097917 -0.723014 0.863000 -5.923700 -16.563200 -0.683794 -3.841851 1.273158 26.284020 1.551391 -21.742735 -3.806796 -10.504532 35.343174 -0.801072 2.367078 -5.427655 -0.983300 -6.311900 17.692000 -0.148598 -1.222196 7.664772 1.249474 -1.807277 -4.053461 3.082485 -0.157477 1.918198 -4.849062 -6.115211 -5.157780 -0.846033 -6.790778 4.624176 4.004600 -3.021700 1.851300 1.300344 2.017686 0.332275 -78.263645 -2.563832 23.714358 22.506195 -44.190405 -8.232368 -0.930943 0.442402 -178.230375 21.640524 4.952132 2.051100 -7.125000 0.000000 0.000000 -5.017600 35.754500 1.143700 -0.554782 0.987630 3.749276 76.176904 -19.293568 27.356471 -36.722290 48.861917 -11.217751 0.486874 -3.769405 -7.505850 -19.952595 6.005329 -3.653500 7.125000 0.000000 0.000000 4.956100 -19.279200 3.053200 
-31.825156 28.901827 -6.946315 -172.509704 69.970534 -169.870522 -3.457664 1.691069 1.399072 -12.671516 0.164616 -23.016256 6.772331 14.171078 47.987949 1.722003 -9.653483 -0.590901 0.764400 -5.583300 -15.579900 -0.684840 -3.835770 1.268845 26.235393 1.641029 -21.790255 -3.834850 -10.546249 35.485292 -0.824325 2.497718 -5.377712 -1.027400 -6.447800 18.089300 -0.229963 -1.183426 7.959638 1.243638 -1.753069 -4.037355 3.107548 -0.138056 1.900758 -4.806876 -6.126100 -5.393922 -0.822589 -6.797934 4.524192 3.992500 -3.010100 1.874100 1.297140 1.998121 0.328084 -78.108681 -2.044139 23.629592 22.535553 -44.199558 -8.257257 -0.926134 0.445588 -178.110249 21.422469 4.840689 1.986300 -7.125000 0.000000 0.000000 -5.184900 35.624800 1.198500 -0.547181 1.007676 3.748476 76.034879 -19.196241 27.681053 -36.616461 48.774536 -11.151367 0.479376 -3.762001 -7.559181 -19.954291 6.081532 -3.676000 7.125000 0.000000 0.000000 4.963200 -19.208000 3.065500 
-31.800763 28.894038 -6.948775 -172.490105 70.289258 -169.779773 -3.472924 1.689385 1.373119 -12.558662 -1.129402 -22.705577 6.528202 13.925323 47.036059 1.946657 -11.760730 -0.575982 0.844300 -5.860800 -16.381100 -0.686429 -3.832062 1.265690 26.207864 1.778976 -21.842646 -3.874120 -10.601625 35.677694 -0.858729 2.671054 -5.385648 -1.087900 -6.629000 18.620700 -0.286097 -1.155526 8.290640 1.247063 -1.708667 -4.025262 3.179250 -0.125683 1.851965 -4.829709 -6.124393 -5.610626 -0.805002 -6.783410 4.420862 3.995200 -2.989300 1.896100 1.290821 1.970367 0.323484 -77.992512 -1.345409 23.538998 22.652623 -44.285749 -8.326766 -0.919820 0.447398 -178.028029 21.163907 4.723570 1.916100 -7.125000 0.000000 0.000000 -5.383300 35.486500 1.262900 -0.534243 1.031759 3.746584 75.827960 -19.112204 28.057720 -36.520400 48.682940 -11.092387 0.473136 -3.753342 -7.647685 -19.993904 6.133854 -3.697400 7.125000 0.000000 0.000000 4.943700 -19.159600 3.058700 
-31.776574 28.881533 -6.951849 -172.297157 70.574880 -169.509777 -3.485124 1.686165 1.343227 -12.413798 -2.366277 -22.454775 6.271950 13.661191 46.013050 2.097900 -13.492626 -0.513205 1.017600 -6.417900 -18.001800 -0.687332 -3.831466 1.263379 26.251187 1.890319 -21.945422 -3.922259 -10.667995 35.909741 -0.890873 2.834245 -5.393926 -1.125500 -6.738700 18.943500 -0.273337 -1.132659 8.614927 1.253986 -1.663174 -4.010445 3.227018 -0.112017 1.825668 -4.824596 -6.135136 -5.875008 -0.794864 -6.785204 4.313073 3.984900 -2.975100 1.926700 1.289831 1.945662 0.318601 -77.879734 -0.639928 23.474137 22.747916 -44.355053 -8.381849 -0.910326 0.449253 -177.986211 20.793900 4.694225 1.868200 -7.125000 0.000000 0.000000 -5.679700 35.437300 1.339800 -0.522548 1.053804 3.744447 75.654266 -18.977073 28.380409 -36.397780 48.580947 -11.024424 0.460793 -3.745424 -7.729580 -20.074756 6.262878 -3.754100 7.125000 0.000000 0.000000 4.900000 -19.025900 3.046100 
-31.751668 28.869747 -6.955129 -172.011079 70.865160 -169.125950 -3.496501 1.683045 1.310643 -12.313213 -3.472662 -22.314303 6.020641 13.388704 44.962834 2.207473 -14.786946 -0.737865 1.398200 -7.480400 -21.146700 -0.687665 -3.832763 1.263595 26.324627 1.975808 -22.097223 -3.974846 -10.741340 36.164379 -0.937824 3.068000 -5.428513 -1.159500 -6.836100 19.230700 -0.244176 -1.122926 8.931525 1.268378 -1.631916 -4.001919 3.320948 -0.106730 1.771045 -4.893795 -6.133201 -6.087331 -0.771157 -6.762376 4.186475 4.006600 -2.947600 1.939400 1.287295 1.918056 0.314287 -77.832977 0.147673 23.347686 22.821655 -44.413569 -8.426217 -0.902786 0.450936 -177.927915 20.475871 4.718990 1.845100 -7.125000 0.000000 0.000000 -5.940000 35.447800 1.400200 -0.505787 1.080756 3.743199 75.416024 -18.906289 28.763367 -36.337299 48.512873 -10.988408 0.450624 -3.736473 -7.828767 -20.179220 6.364956 -3.806400 7.125000 0.000000 0.000000 4.838400 -18.918800 3.019000 
-31.726455 28.858267 -6.957794 -171.707533 71.129552 -168.712316 -3.509662 1.681245 1.274328 -12.239994 -4.597922 -22.201671 5.789342 13.118209 43.946646 2.297906 -15.737881 -1.206523 1.826600 -8.495100 -24.228400 -0.686404 -3.836635 1.267726 26.405583 2.098842 -22.250286 -4.028562 -10.814520 36.419539 -0.974664 3.248847 -5.471444 -1.203100 -6.958900 19.593800 -0.194383 -1.102062 9.258465 1.272902 -1.586807 -3.994879 3.341040 -0.091837 1.710514 -4.884513 -6.146728 -6.335994 -0.736874 -6.768844 4.077456 4.012000 -2.935000 1.972300 1.283854 1.884774 0.307130 -77.730155 0.914376 23.261623 22.838276 -44.417804 -8.442915 -0.897223 0.454888 -177.891051 20.202112 4.630503 1.787600 -7.125000 0.000000 0.000000 -6.153400 35.343700 1.466600 -0.495352 1.111526 3.742036 75.279802 -18.840315 29.071607 -36.267367 48.449909 -10.949715 0.436856 -3.732077 -7.832864 -20.319405 6.490772 -3.877400 7.125000 0.000000 0.000000 4.750600 -18.778000 2.978700 
